# xmcd CD database file
#
# Track frame offsets:
#	185
#	19779
#	40154
#	58265
#	79137
#	97701
#	120395
#	131444
#	151044
#	172866
#	195395
#
# Disc length: 2911 seconds
#
# Revision: 0
# Processed by: cddbd v1.5.1PL2 Copyright (c) Steve Scherf et al.
# Submitted via: CDex 1.51
#
DISCID=760b5d0b
DTITLE=Libena and her Jazz Brothers - Jazz Cocktail Volume 1
DYEAR=1995
DGENRE=Jazz
TTITLE0=Red Roses
TTITLE1=Love me or leave me
TTITLE2=Flat Foot Floogee
TTITLE3=Georgia on my mind
TTITLE4=One Note Samba
TTITLE5=Exactly like you
TTITLE6=Welcome back
TTITLE7=I get a Kick out of you
TTITLE8=On the Sunnyside of the street
TTITLE9=Wave
TTITLE10=Blues for Joe
EXTD=YEAR: 1995
EXTT0=
EXTT1=
EXTT2=
EXTT3=
EXTT4=
EXTT5=
EXTT6=
EXTT7=
EXTT8=
EXTT9=
EXTT10=
PLAYORDER=
